<svg xmlns="http://www.w3.org/2000/svg" width="14" height="11" viewBox="0 0 14 11">
  <path id="camera" d="M10.6,11H3.36a15.784,15.784,0,0,1-1.648-.051,1.935,1.935,0,0,1-1.188-.473A1.94,1.94,0,0,1,.05,9.286C.011,8.932.005,8.486,0,8.059Q0,8.03,0,8V4.463A16.907,16.907,0,0,1,.052,2.712,1.937,1.937,0,0,1,.526,1.524a1.872,1.872,0,0,1,1.188-.472c.053-.006.116-.009.176-.012L2,1.034V.5A.5.5,0,0,1,2.5,0H4a.5.5,0,0,1,.5.5V1h6.073a16.363,16.363,0,0,1,1.715.052,1.935,1.935,0,0,1,1.188.473,1.872,1.872,0,0,1,.472,1.188A16.541,16.541,0,0,1,14,4.429V8a.393.393,0,0,1,0,.059,11.7,11.7,0,0,1-.049,1.229,1.938,1.938,0,0,1-.473,1.189,1.938,1.938,0,0,1-1.189.472A14.852,14.852,0,0,1,10.7,11ZM1.825,2.045a1.057,1.057,0,0,0-.593.185,1.056,1.056,0,0,0-.187.594C1,3.2,1,3.756,1,4.5v3c0,.743,0,1.3.045,1.675a1.059,1.059,0,0,0,.186.594,1.05,1.05,0,0,0,.593.186c.37.042.9.045,1.676.045h7c.772,0,1.306,0,1.675-.045a1.053,1.053,0,0,0,.594-.185,1.059,1.059,0,0,0,.186-.594C13,8.807,13,8.273,13,7.5v-3c0-.743,0-1.3-.045-1.675a1.066,1.066,0,0,0-.185-.594,1.071,1.071,0,0,0-.594-.186C11.807,2,11.273,2,10.5,2H4.074a.446.446,0,0,1-.149,0H3.5C2.757,2,2.2,2,1.825,2.045ZM4,6A3,3,0,1,1,7,9,3,3,0,0,1,4,6ZM5,6A2,2,0,1,0,7,4,2,2,0,0,0,5,6Z"/>
</svg>
