<svg xmlns="http://www.w3.org/2000/svg" width="30.721" height="20.56" viewBox="0 0 30.721 20.56">
  <g id="Group_29" data-name="Group 29" transform="translate(-0.497 -0.497)">
    <path id="Combined_Shape" data-name="Combined Shape" d="M28.724,20.56H21.486V17.767h9.235v.8A2,2,0,0,1,28.724,20.56Zm-8.6,0H11.483V15.187h8.643v5.373Zm-10,0H2a2,2,0,0,1-2-2V2A2,2,0,0,1,2,0h8.125V3.5H.009V4.872H10.122V7.811H.009V9.178H10.122v2.939H.009v1.367H10.122v2.94H.009V17.79H10.122v2.769Zm20.6-4.123H21.486V13.46h9.235v2.976Zm-10.595-2.58H11.483V7.072h8.643v6.784ZM30.721,12.13H21.486V9.154h9.235v2.975Zm0-4.306H21.486V4.848h9.235V7.824ZM20.126,5.743H11.483V0h8.643V5.742ZM30.721,3.518H21.486V0h7.239a2,2,0,0,1,2,2V3.517Z" transform="translate(0.496 0.496)" fill="#fff" opacity="0.2"/>
  </g>
</svg>
