<svg xmlns="http://www.w3.org/2000/svg" width="17" height="17" viewBox="0 0 17 17">
  <path id="icon-double-arrows" d="M8.129,16.7a1,1,0,0,1-.16-1.154l.067-.118.094-.115L14.673,8.5,8.129,1.685A1.008,1.008,0,0,1,7.976.5L8.046.4,8.123.3a.958.958,0,0,1,.7-.3A.934.934,0,0,1,9.29.126L9.41.2l.107.1,7.21,7.509a1,1,0,0,1,.16,1.154l-.067.119-.094.114L9.517,16.7a.959.959,0,0,1-1.389,0Zm-7.851,0a1,1,0,0,1-.16-1.154l.067-.118.094-.115L6.822,8.5.278,1.685A1.008,1.008,0,0,1,.125.5L.2.4.273.3a.957.957,0,0,1,.7-.3.934.934,0,0,1,.467.126L1.56.2l.107.1,7.21,7.509a1,1,0,0,1,.16,1.154l-.067.119-.094.114L1.667,16.7a.959.959,0,0,1-1.389,0Z"/>
</svg>
