<svg xmlns="http://www.w3.org/2000/svg" width="14.061" height="13.478" viewBox="0 0 14.061 13.478">
  <g id="filter" transform="translate(-0.239 -0.545)">
    <g id="Icons_icon-filter-small" data-name="Icons/icon-filter-small" transform="translate(-5 -4)">
      <path id="vector" d="M9.951,11.915a3.053,3.053,0,0,1,2.993,2.451h5.731a.6.6,0,1,1,0,1.2H12.949a3.055,3.055,0,0,1-5.991,0H5.864a.6.6,0,1,1,0-1.2H6.958A3.053,3.053,0,0,1,9.951,11.915Zm0,1.2A1.853,1.853,0,1,0,11.8,14.968h0A1.853,1.853,0,0,0,9.95,13.116Zm3.025-8.571a3.055,3.055,0,0,1,3,2.454h2.707a.6.6,0,1,1,0,1.2H15.97a3.055,3.055,0,0,1-5.991,0H5.865a.6.6,0,0,1,0-1.2H9.98A3.055,3.055,0,0,1,12.975,4.545Zm0,1.2A1.853,1.853,0,1,0,14.824,7.6h0a1.85,1.85,0,0,0-1.853-1.853Z"/>
    </g>
  </g>
</svg>
