<svg id="Icons_icon-added-to-fav_Copy_2" data-name="Icons/icon-added-to-fav Copy 2" xmlns="http://www.w3.org/2000/svg" width="30" height="30" viewBox="0 0 30 30">
  <rect id="Rectangle" width="30" height="30" rx="15" fill="#cc9d76" opacity="0.16"/>
  <g id="Icons_icon-bookmark-filled" data-name="Icons/icon-bookmark-filled" transform="translate(2.5 2.5)">
    <path id="Path" d="M10.169,0H.248A.236.236,0,0,0,0,.251V14.32a.265.265,0,0,0,.124.226.223.223,0,0,0,.248,0l4.836-2.939,4.836,2.939a.184.184,0,0,0,.124.025.221.221,0,0,0,.124-.025.265.265,0,0,0,.124-.226V.251A.236.236,0,0,0,10.169,0Z" transform="translate(7.292 5.208)" fill="#cc9d76"/>
  </g>
</svg>
