<svg id="loading" xmlns="http://www.w3.org/2000/svg" width="39.836" height="39.836" viewBox="0 0 39.836 39.836">
  <path id="Path_1" data-name="Path 1" d="M242.165,9.834a1.167,1.167,0,0,0,1.167-1.167v-7.5a1.167,1.167,0,0,0-2.334,0v7.5A1.167,1.167,0,0,0,242.165,9.834Z" transform="translate(-222.247)" fill="#cc9d76"/>
  <path id="Path_2" data-name="Path 2" d="M242.165,395.435a1.167,1.167,0,0,0,1.167-1.167v-7.5a1.167,1.167,0,0,0-2.334,0v7.5A1.167,1.167,0,0,0,242.165,395.435Z" transform="translate(-222.247 -355.599)" fill="#cc9d76" opacity="0.35"/>
  <path id="Path_3" data-name="Path 3" d="M314.463,41.114a1.167,1.167,0,0,0,1.012-.584l3.75-6.5a1.167,1.167,0,1,0-2.021-1.167l-3.75,6.5a1.167,1.167,0,0,0,1.01,1.751Z" transform="translate(-288.921 -29.772)" fill="#cc9d76" opacity="0.1"/>
  <path id="Path_4" data-name="Path 4" d="M121.661,375.056a1.166,1.166,0,0,0,1.012-.584l3.75-6.5a1.167,1.167,0,1,0-2.021-1.167l-3.75,6.5a1.167,1.167,0,0,0,1.01,1.751Z" transform="translate(-111.12 -337.732)" fill="#cc9d76" opacity="0.45"/>
  <path id="Path_5" data-name="Path 5" d="M367.39,126.582a1.161,1.161,0,0,0,.582-.157l6.5-3.75a1.167,1.167,0,1,0-1.167-2.021l-6.5,3.75a1.167,1.167,0,0,0,.585,2.178Z" transform="translate(-337.728 -111.122)" fill="#cc9d76" opacity="0.15"/>
  <path id="Path_6" data-name="Path 6" d="M33.453,319.383a1.161,1.161,0,0,0,.582-.157l6.5-3.75a1.167,1.167,0,1,0-1.167-2.021l-6.5,3.75a1.167,1.167,0,0,0,.585,2.178Z" transform="translate(-29.773 -288.922)" fill="#cc9d76" opacity="0.55"/>
  <path id="Path_7" data-name="Path 7" d="M386.765,243.336h7.5a1.167,1.167,0,1,0,0-2.334h-7.5a1.167,1.167,0,0,0,0,2.334Z" transform="translate(-355.597 -222.251)" fill="#cc9d76" opacity="0.2"/>
  <path id="Path_8" data-name="Path 8" d="M1.167,243.336h7.5a1.167,1.167,0,1,0,0-2.334h-7.5a1.167,1.167,0,0,0,0,2.334Z" transform="translate(0 -222.251)" fill="#cc9d76" opacity="0.65"/>
  <path id="Path_9" data-name="Path 9" d="M373.884,319.384a1.167,1.167,0,0,0,.585-2.178l-6.5-3.75a1.167,1.167,0,1,0-1.167,2.021l6.5,3.75A1.161,1.161,0,0,0,373.884,319.384Z" transform="translate(-337.729 -288.923)" fill="#cc9d76" opacity="0.25"/>
  <path id="Path_10" data-name="Path 10" d="M39.947,126.583a1.167,1.167,0,0,0,.585-2.178l-6.5-3.75a1.167,1.167,0,1,0-1.167,2.021l6.5,3.75A1.161,1.161,0,0,0,39.947,126.583Z" transform="translate(-29.773 -111.123)" fill="#cc9d76" opacity="0.75"/>
  <path id="Path_11" data-name="Path 11" d="M318.215,375.057a1.167,1.167,0,0,0,1.01-1.751l-3.75-6.5a1.167,1.167,0,1,0-2.021,1.167l3.75,6.5A1.167,1.167,0,0,0,318.215,375.057Z" transform="translate(-288.921 -337.732)" fill="#cc9d76" opacity="0.25"/>
  <path id="Path_12" data-name="Path 12" d="M125.414,41.116a1.167,1.167,0,0,0,1.01-1.751l-3.75-6.5a1.167,1.167,0,1,0-2.021,1.167l3.75,6.5A1.167,1.167,0,0,0,125.414,41.116Z" transform="translate(-111.12 -29.774)" fill="#cc9d76" opacity="0.9"/>
</svg>
