<svg xmlns="http://www.w3.org/2000/svg" width="40" height="32" viewBox="0 0 40 32">
  <path id="photo" d="M35.708,0A4.313,4.313,0,0,1,40,4.325V27.676A4.313,4.313,0,0,1,35.708,32H4.292A4.313,4.313,0,0,1,0,27.676V4.325A4.313,4.313,0,0,1,4.292,0ZM29.662,13.946a2.568,2.568,0,0,0-1.982.911l-.118.15-5.846,8.042A4.262,4.262,0,0,1,16.053,24.2l-.187-.12L11.5,21.137a2.554,2.554,0,0,0-2.683-.112l-.165.1L1.717,25.777v1.9a2.589,2.589,0,0,0,2.413,2.589l.163.005H35.708a2.587,2.587,0,0,0,2.568-2.426l.006-.164v-3.3l-6.539-9.336A2.57,2.57,0,0,0,29.662,13.946ZM35.708,1.73H4.292A2.588,2.588,0,0,0,1.717,4.325V23.7L7.7,19.684a4.258,4.258,0,0,1,4.751.016l4.371,2.947a2.557,2.557,0,0,0,3.51-.623l5.844-8.042a4.273,4.273,0,0,1,6.973.062l5.133,7.332V4.325A2.588,2.588,0,0,0,35.708,1.73ZM16.049,4.845A5.855,5.855,0,1,1,10.238,10.7,5.833,5.833,0,0,1,16.049,4.845Zm0,1.728a4.079,4.079,0,0,0-2.9,1.209,4.089,4.089,0,1,0,2.9-1.208Z"/>
</svg>
