<svg xmlns="http://www.w3.org/2000/svg" width="100" height="100" viewBox="0 0 100 100">
  <g id="Group_2165" data-name="Group 2165" transform="translate(-138 -260)">
    <circle id="Oval" cx="50" cy="50" r="50" transform="translate(138 260)" fill="#cc9d76"/>
    <path id="icon-send" d="M27.487.512A1.75,1.75,0,0,0,25.662.1l-24.5,8.75a1.748,1.748,0,0,0-.194,3.211l8.026,4.011L19.25,8.749,11.922,19.008l4.011,8.025A1.756,1.756,0,0,0,17.5,28c.037,0,.072,0,.107,0a1.749,1.749,0,0,0,1.543-1.158l8.75-24.5A1.754,1.754,0,0,0,27.487.512Z" transform="translate(173 297)" fill="#fff"/>
    <path id="Path_52" data-name="Path 52" d="M-1624.8-7553.123s-20.67,9.163-10.912,22.233,1.012,21.376,1.012,21.376" transform="translate(1808.5 7867.5)" fill="none" stroke="#fff" stroke-width="1" stroke-dasharray="1"/>
  </g>
</svg>
