<svg xmlns="http://www.w3.org/2000/svg" width="16" height="20" viewBox="0 0 16 20">
  <path id="shopingOut" d="M19.025,8a.5.5,0,0,0-.485-.457H15.874V5.855a3.877,3.877,0,0,0-7.755,0V7.542H5.454A.5.5,0,0,0,4.969,8L4,21.494a.588.588,0,0,0,.121.361A.46.46,0,0,0,4.485,22H19.509a.493.493,0,0,0,.363-.145.418.418,0,0,0,.121-.361ZM9.089,5.855a2.908,2.908,0,0,1,5.816,0V7.542H9.089Zm-4.1,15.181.9-12.53H8.12v3.133a.485.485,0,0,0,.969,0V8.506H14.9v3.133a.485.485,0,0,0,.969,0V8.506h2.205l.9,12.53Z" transform="translate(-4 -2)"/>
</svg>
