<svg id="Icons_icon-remove-fav_Copy_2" data-name="Icons/icon-remove-fav Copy 2" xmlns="http://www.w3.org/2000/svg" width="30" height="30" viewBox="0 0 30 30">
  <rect id="Frame" width="30" height="30" rx="15" fill="#c10e0e"/>
  <path id="icon-trash" d="M3.827,15.312A1.916,1.916,0,0,1,1.914,13.4V5.1H13.4V13.4a1.916,1.916,0,0,1-1.915,1.914ZM9.57,12.123h1.276V7.656H9.57Zm-2.552,0H8.293V7.656H7.018Zm-2.551,0H5.742V7.656H4.466ZM.638,3.828a.638.638,0,0,1,0-1.276H4.466V.638A.639.639,0,0,1,5.1,0h5.1a.639.639,0,0,1,.639.638V2.552h3.827a.638.638,0,1,1,0,1.276Zm5.1-1.276H9.57V1.276H5.742Z" transform="translate(7.344 7.344)" fill="#fff"/>
</svg>
