<svg xmlns="http://www.w3.org/2000/svg" width="18" height="20" viewBox="0 0 18 20">
  <path id="Combined_Shape" data-name="Combined Shape" d="M3.506,20a.513.513,0,0,1-.486-.485L1.946,3.983H.486a.506.506,0,0,1,0-1.011H5.594V2.066A2.03,2.03,0,0,1,7.581,0h2.839a2.03,2.03,0,0,1,1.986,2.066v.906h5.108A.491.491,0,0,1,18,3.479a.5.5,0,0,1-.486.5h-1.44L15,19.515a.5.5,0,0,1-.486.485Zm.446-1.031H14.047L15.061,3.983H2.919ZM7.581,1.013a1.015,1.015,0,0,0-.993,1.032v.906h4.824V2.044a1.015,1.015,0,0,0-.993-1.032ZM10,14.484V7.516a.5.5,0,1,1,1,0v6.969a.515.515,0,0,1-.5.516A.487.487,0,0,1,10,14.484Zm-3,0V7.516a.5.5,0,1,1,1,0v6.969a.5.5,0,1,1-1,0Z"/>
</svg>
