<svg xmlns="http://www.w3.org/2000/svg" width="34" height="37.291" viewBox="0 0 34 37.291">
  <g id="ua_ico" transform="translate(-52.091 -35.903)">
    <path id="Path_20" data-name="Path 20" d="M87.184,63.973h-.039a5.074,5.074,0,0,0-4.988,5.093v.278l-.005.037a.726.726,0,0,0-.008.107v6.6a3.539,3.539,0,0,1-3.435,3.549h-.06a3.495,3.495,0,0,1-3.494-3.494V69.407a.766.766,0,0,0-1.533,0v6.738a5.033,5.033,0,0,0,5.027,5.027h.039a5.074,5.074,0,0,0,4.988-5.093V75.8l.005-.036a.875.875,0,0,0,.008-.11v-6.6a3.538,3.538,0,0,1,3.428-3.549h.067A3.5,3.5,0,0,1,90.678,69v3.2l-.789-.466a5.292,5.292,0,0,0-2.318-.713l-.05,0a.71.71,0,0,0-.047,1.418,3.382,3.382,0,0,1,3.193,2.5l.011.053v.747a.766.766,0,0,0,1.533,0V69A5.033,5.033,0,0,0,87.184,63.973Z" transform="translate(-13.825 -18.024)" fill="#fff"/>
    <path id="Path_21" data-name="Path 21" d="M82.918,42.9,72.263,36.751a6.358,6.358,0,0,0-6.345,0L55.263,42.9a6.363,6.363,0,0,0-3.172,5.5V60.7a6.363,6.363,0,0,0,3.172,5.494l10.655,6.151a6.364,6.364,0,0,0,6.345,0l10.655-6.151A6.364,6.364,0,0,0,86.091,60.7V48.4A6.364,6.364,0,0,0,82.918,42.9Zm1.93,17.8A5.119,5.119,0,0,1,82.3,65.12L71.642,71.271a5.122,5.122,0,0,1-5.1,0L55.885,65.12A5.121,5.121,0,0,1,53.334,60.7V48.4a5.116,5.116,0,0,1,2.551-4.419L66.54,37.827a5.116,5.116,0,0,1,5.1,0L82.3,43.978A5.115,5.115,0,0,1,84.848,48.4Z" transform="translate(0 0)" fill="#fff"/>
  </g>
</svg>
